<svg width="287" height="183" viewBox="0 0 287 183" fill="none" xmlns="http://www.w3.org/2000/svg">
<g filter="url(#filter0_b_32_2)">
<path d="M223.337 181.458L85.563 179.643C61.2194 179.323 -7.85547 153.542 2.00512 81.3256C9.89358 23.5522 52.9876 4.4075 73.5485 2.05684C135.966 -5.99797 167.798 34.7211 177.022 58.3717C177.516 59.639 179.087 60.1135 180.209 59.3438C207.411 40.6738 238.502 48.9619 250.935 55.6508C263.883 60.5761 288.908 81.1398 285.572 124.017C285.563 124.134 285.542 124.257 285.512 124.37C273.998 168.055 239.278 180.632 223.337 181.458Z" fill="url(#paint0_linear_32_2)"/>
<path d="M223.337 181.458L85.563 179.643C61.2194 179.323 -7.85547 153.542 2.00512 81.3256C9.89358 23.5522 52.9876 4.4075 73.5485 2.05684C135.966 -5.99797 167.798 34.7211 177.022 58.3717C177.516 59.639 179.087 60.1135 180.209 59.3438C207.411 40.6738 238.502 48.9619 250.935 55.6508C263.883 60.5761 288.908 81.1398 285.572 124.017C285.563 124.134 285.542 124.257 285.512 124.37C273.998 168.055 239.278 180.632 223.337 181.458Z" stroke="url(#paint1_linear_32_2)" stroke-width="2"/>
</g>
<defs>
<filter id="filter0_b_32_2" x="-5.95154" y="-5.98225" width="298.827" height="194.44" filterUnits="userSpaceOnUse" color-interpolation-filters="sRGB">
<feFlood flood-opacity="0" result="BackgroundImageFix"/>
<feGaussianBlur in="BackgroundImageFix" stdDeviation="3"/>
<feComposite in2="SourceAlpha" operator="in" result="effect1_backgroundBlur_32_2"/>
<feBlend mode="normal" in="SourceGraphic" in2="effect1_backgroundBlur_32_2" result="shape"/>
</filter>
<linearGradient id="paint0_linear_32_2" x1="114.056" y1="-8.85399" x2="118" y2="191.5" gradientUnits="userSpaceOnUse">
<stop stop-color="white"/>
<stop offset="0.44648" stop-color="white" stop-opacity="0.9417"/>
<stop offset="1" stop-color="white" stop-opacity="0.3"/>
</linearGradient>
<linearGradient id="paint1_linear_32_2" x1="165" y1="-13" x2="166.843" y2="196.87" gradientUnits="userSpaceOnUse">
<stop stop-color="white"/>
<stop offset="1" stop-color="white" stop-opacity="0"/>
</linearGradient>
</defs>
</svg>
