<svg width="325" height="282" viewBox="0 0 325 282" fill="none" xmlns="http://www.w3.org/2000/svg">
<g filter="url(#filter0_if_2_9)">
<path d="M76.4444 225.317L214.198 228.312C238.538 228.841 308.47 205.488 301.136 132.971C295.269 74.957 252.869 54.32 232.403 51.2532C167.979 40.6419 134.622 83.6431 125.996 106.47C99.0217 84.7764 66.262 92.2002 53.2539 98.6238C40.1237 103.1 14.3425 122.827 16.26 165.919C26.191 210.118 60.5208 223.934 76.4444 225.317Z" fill="#D9D9D9" fill-opacity="0.95"/>
<path d="M76.4444 225.317L214.198 228.312C238.538 228.841 308.47 205.488 301.136 132.971C295.269 74.957 252.869 54.32 232.403 51.2532C167.979 40.6419 134.622 83.6431 125.996 106.47C99.0217 84.7764 66.262 92.2002 53.2539 98.6238C40.1237 103.1 14.3425 122.827 16.26 165.919C26.191 210.118 60.5208 223.934 76.4444 225.317Z" stroke="white"/>
</g>
<path d="M69.3837 237.805C69.3837 233.305 74.3837 222.805 74.8837 218.305C78.3838 223.639 81.8837 225.805 85.8838 240.305C88.3665 249.305 79.3838 251.305 74.8837 249.305C70.3837 247.305 69.3837 242.817 69.3837 237.805Z" fill="#749BFF" stroke="white" stroke-opacity="0.55"/>
<path d="M109.384 197.805C109.384 193.305 114.384 182.805 114.884 178.305C118.384 183.639 121.884 185.805 125.884 200.305C128.366 209.305 119.384 211.305 114.884 209.305C110.384 207.305 109.384 202.817 109.384 197.805Z" fill="#749BFF" stroke="white" stroke-opacity="0.55"/>
<path d="M149.384 257.805C149.384 253.305 154.384 242.805 154.884 238.305C158.384 243.639 161.884 245.805 165.884 260.305C168.366 269.305 159.384 271.305 154.884 269.305C150.384 267.305 149.384 262.817 149.384 257.805Z" fill="#749BFF" stroke="white" stroke-opacity="0.55"/>
<path d="M239.384 257.805C239.384 253.305 244.384 242.805 244.884 238.305C248.384 243.639 251.884 245.805 255.884 260.305C258.367 269.305 249.384 271.305 244.884 269.305C240.384 267.305 239.384 262.817 239.384 257.805Z" fill="#749BFF" stroke="white" stroke-opacity="0.55"/>
<path d="M189.384 227.805C189.384 223.305 194.384 212.805 194.884 208.305C198.384 213.639 201.884 215.805 205.884 230.305C208.366 239.305 199.384 241.305 194.884 239.305C190.384 237.305 189.384 232.817 189.384 227.805Z" fill="#749BFF" stroke="white" stroke-opacity="0.55"/>
<defs>
<filter id="filter0_if_2_9" x="13.6587" y="47.0973" width="290.514" height="183.723" filterUnits="userSpaceOnUse" color-interpolation-filters="sRGB">
<feFlood flood-opacity="0" result="BackgroundImageFix"/>
<feBlend mode="normal" in="SourceGraphic" in2="BackgroundImageFix" result="shape"/>
<feColorMatrix in="SourceAlpha" type="matrix" values="0 0 0 0 0 0 0 0 0 0 0 0 0 0 0 0 0 0 127 0" result="hardAlpha"/>
<feOffset dy="3"/>
<feGaussianBlur stdDeviation="1"/>
<feComposite in2="hardAlpha" operator="arithmetic" k2="-1" k3="1"/>
<feColorMatrix type="matrix" values="0 0 0 0 1 0 0 0 0 1 0 0 0 0 1 0 0 0 1 0"/>
<feBlend mode="normal" in2="shape" result="effect1_innerShadow_2_9"/>
<feGaussianBlur stdDeviation="1" result="effect2_foregroundBlur_2_9"/>
</filter>
</defs>
</svg>
